Coordinates

Units are S.I. units (second, meters, Newtons, ...)
If the header above contains a line with 'inDegrees', this indicates whether rotational values are in degrees (yes) or radians (no).

inDegrees=no
nColumns=21
nRows=17
DataType=double
version=3
OpenSimVersion=4.6-2026-03-31-d6972f9e6
endheader
time	/jointset/ground_pelvis/pelvis_tilt/value	/jointset/ground_pelvis/pelvis_list/value	/jointset/ground_pelvis/pelvis_rotation/value	/jointset/ground_pelvis/pelvis_tx/value	/jointset/ground_pelvis/pelvis_ty/value	/jointset/ground_pelvis/pelvis_tz/value	/jointset/hip_r/hip_flexion_r/value	/jointset/hip_r/hip_adduction_r/value	/jointset/hip_r/hip_rotation_r/value	/jointset/walker_knee_r/knee_angle_r/value	/jointset/patellofemoral_r/knee_angle_r_beta/value	/jointset/ankle_r/ankle_angle_r/value	/jointset/subtalar_r/subtalar_angle_r/value	/jointset/hip_l/hip_flexion_l/value	/jointset/hip_l/hip_adduction_l/value	/jointset/hip_l/hip_rotation_l/value	/jointset/walker_knee_l/knee_angle_l/value	/jointset/patellofemoral_l/knee_angle_l_beta/value	/jointset/ankle_l/ankle_angle_l/value	/jointset/subtalar_l/subtalar_angle_l/value
142.496	-0.1449399157028239	-0.05273333130850841	0.05176476725266908	0.9676294908380212	1.043801521909984	-0.3917264985081982	0.5881286596552442	0.01843138622982881	-0.1413763800961355	0.3091719782793912	0.3091719787667773	-0.04275958449965156	-0.182053659332727	-0.2665421063487844	-0.07720743016719968	-0.1006577447128542	0.2194373859528902	0.2194373872287401	-0.4364678008178887	-0.09060529614146497
142.5	-0.1459673079745457	-0.05124281263275798	0.04867058601627964	0.9684649342741718	1.04400544728522	-0.3911600111539966	0.5827022133020425	0.02170554525683502	-0.1419022189669341	0.2831171117998509	0.2831171123157676	-0.03564084427591362	-0.1600681222208932	-0.2666584444794826	-0.07678505597938687	-0.1075562345408809	0.2332430942456983	0.2332430953729148	-0.4534336785488059	-0.09895754793253977
142.504	-0.1465703330773367	-0.0495368863079031	0.04557487003310227	0.9692752167153498	1.044093777676911	-0.3905806863049219	0.576989554915373	0.02468175316268798	-0.14224826434796	0.2595515803563326	0.2595515809063474	-0.02899914669683722	-0.1389619640346999	-0.266321007842985	-0.07613997246537334	-0.1135030443331249	0.2489922712727857	0.2489922722361259	-0.4694089032585474	-0.1091415811636988
142.508	-0.1467100547436899	-0.04764986497351128	0.042491949255693	0.970058665351258	1.044072117648577	-0.3899914499485614	0.5709493382520185	0.02736583773895171	-0.1424655226060417	0.2385005496247239	0.2385005502141785	-0.02290383248387983	-0.1189709544146832	-0.2655960878218188	-0.07530857060379485	-0.1184364447341852	0.2666132179556323	0.2666132187434445	-0.4843858478131234	-0.1210625513667087
142.512	-0.1463493078737486	-0.04561391883472021	0.0394369640383471	0.9708142913196859	1.043945901280166	-0.3893955277083678	0.5645372845395531	0.02976266114758086	-0.1426102145573047	0.2199654282848567	0.2199654289187453	-0.01740799133116311	-0.1003054068726129	-0.2645513890033913	-0.0743231010467154	-0.1223178092584934	0.2860218841604266	0.286021884765559	-0.4983535261810589	-0.1345918207438714
142.516	-0.1454538250715296	-0.04345911282757572	0.0364252638961211	0.9715416929839248	1.043720155739358	-0.3887963178224701	0.5577090269367958	0.03187695455810825	-0.1427416537427377	0.2039261370260874	0.2039261377083046	-0.01254571147732785	-0.08314726918339006	-0.2632540868161447	-0.07321206926920774	-0.1251331017884454	0.307124024814535	0.3071240252349193	-0.5112978633262246	-0.149572048271965
142.52	-0.1439934083833021	-0.04121383425466755	0.03347167511661035	0.9722409158545289	1.043399296724999	-0.3881972429747558	0.5504231056157994	0.03371456162608893	-0.1429197532987632	0.1903437839937499	0.1903437847257979	-0.008329791892734242	-0.06764843787626729	-0.2617687828688517	-0.07200121476901095	-0.126893747400413	0.3298175372525061	0.3298175374911148	-0.5232024845864996	-0.1658232482846262
142.524	-0.1419431474954297	-0.03890551983391429	0.03058963085852535	0.972912273274308	1.04298696018799	-0.3876015800592527	0.5426440417626149	0.03528400235466676	-0.1432020719217073	0.1791636449816491	0.1791636457612362	-0.004750167766004078	-0.05393049030971477	-0.2601553763867697	-0.07071495826054332	-0.1276368930682826	0.3539949287465388	0.3539949288107275	-0.5340498173237513	-0.183149316861016
142.528	-0.139284664601812	-0.03656154170782727	0.02779019117185568	0.9735561351266656	1.04248587460716	-0.3870122727522873	0.5343454060649554	0.03659819577440098	-0.1436403964208058	0.1703183749474644	0.1703183757674392	-0.001773223299838996	-0.04208587908345675	-0.2584669049789196	-0.06937813260137721	-0.1274250151052632	0.3795458249565345	0.3795458248571175	-0.5438223322192236	-0.201344556356938
142.532	-0.1360073172912297	-0.03421011540421419	0.02508102303623776	0.9741726968922821	1.041897781212634	-0.3864317412768117	0.5255127497256046	0.03767614337341686	-0.1442770626679584	0.1637313997591447	0.163731400606958	0.0006579795965727671	-0.03218034555021965	-0.2567474790052447	-0.06801779802200542	-0.1263447787611579	0.4063593758314727	0.4063593755819657	-0.5525038543989247	-0.2201998661537284
142.536	-0.1321092873620147	-0.03188113503922912	0.0224654095377381	0.9747617451833722	1.041223407824035	-0.3858617040793398	0.5161462524726607	0.03854441855893277	-0.1451413111989022	0.1593204074138622	0.1593204082715444	0.00262255955872582	-0.02425619132962669	-0.2550304342734217	-0.06666498250949511	-0.1245051165469145	0.4343264281064045	0.4343264277227141	-0.5600808704935535	-0.2395083144044549
142.54	-0.1275985223555448	-0.02960688188746934	0.01994134093803696	0.9753224371405731	1.040462495654004	-0.3853030227323649	0.5062629729700142	0.03923836576958201	-0.1462459737879313	0.1570008130177645	0.15700081386242	0.004219747991752201	-0.01833602657286441	-0.253336768847091	-0.06535622886934264	-0.1220345598677427	0.4633413807867857	0.4633413802873876	-0.5665437263563206	-0.259069887521864
142.544	-0.1224935463445069	-0.02742256874247702	0.01750074938074793	0.9758531098769532	1.039613870687726	-0.3847555829740447	0.4958986434119778	0.0398029267028288	-0.1475847932556695	0.1566890555764424	0.1566890563813244	0.005565930345887097	-0.01442656242309987	-0.2516738540615202	-0.06413483797856841	-0.1190778436949594	0.4933036849431317	0.4933036843495028	-0.5718876540115715	-0.2786954511046334
142.548	-0.1168241790889865	-0.02536669442809371	0.01512896231898732	0.9763511341035719	1.038675546204452	-0.3842182266236438	0.4851089815205242	0.04029301974568509	-0.149130675179298	0.1583055771305613	0.158305577866724	0.006790905532063024	-0.01252199455352972	-0.2500343651588606	-0.06305171232144628	-0.1157918008185795	0.5241189884143346	0.5241189877511732	-0.5761136116138652	-0.2982101394333107
142.552	-0.1106321429678687	-0.02348117489382373	0.01280442673760776	0.9768128242800571	1.037644847441234	-0.3836887428078384	0.4739704363386912	0.04077341756138999	-0.1508350764161851	0.1617773275814442	0.1617773282197747	0.008033504424141422	-0.01260661431730191	-0.2483954456383393	-0.06216572165627283	-0.1123406495271604	0.5556999225185023	0.5556999218132829	-0.5792288808760374	-0.3174562341842919
142.556	-0.1039714398603986	-0.02181118085804907	0.01049871547734586	0.9772334148324781	1.036518559227099	-0.3831639166792865	0.4625801972383963	0.04131807084497444	-0.1526285820455663	0.1670396526605269	0.1670396531737883	0.009436710445204432	-0.01465644229695416	-0.2467182440748755	-0.06154350858698382	-0.108890878722476	0.5879664903976098	0.587966489679323	-0.5812473084527912	-0.3362952695587954
142.56	-0.09690838648979935	-0.02040460974422454	0.008176824472285403	0.9776071066281955	1.035293097705814	-0.3826396308355007	0.4510553320330423	0.04200883291551835	-0.154422648959554	0.1740374559799492	0.1740374563444787	0.01114243049829101	-0.01863981441553602	-0.2449479408897922	-0.06125866982224672	-0.1056059439019111	0.6208460349700196	0.6208460342672931	-0.5821891298926158	-0.354609089542114
